# AST/ASF file generated using VICON BodyLanguage
# -----------------------------------------------
:version 1.10
:name VICON
:units
  mass 1.0
  length 0.45
  angle deg
:documentation
   .ast/.asf automatically generated from VICON data using
   VICON BodyBuilder and BodyLanguage model FoxedUp or BRILLIANT.MOD
:root
   order TX TY TZ RX RY RZ
   axis XYZ
   position 0 0 0  
   orientation 0 0 0 
:bonedata
  begin
     id 1 
     name lhipjoint
     direction 0.661853 -0.702389 0.261917 
     length 2.64193 
     axis 0 0 0  XYZ
  end
  begin
     id 2 
     name lfemur
     direction 0.34202 -0.939693 0  
     length 7.01722  
     axis 0 0 20  XYZ
    dof rx ry rz
    limits (-160.0 20.0)
           (-70.0 70.0)
           (-60.0 70.0)
  end
  begin
     id 3 
     name ltibia
     direction 0.34202 -0.939693 0   
     length 8.25008   
     axis 0 0 20   XYZ
    dof rx
    limits (-10.0 170.0)
  end
  begin
     id 4 
     name lfoot
     direction 0.0709916 -0.195048 0.978221   
     length 2.31941   
     axis -90 7.62852e-016 20   XYZ
    dof rx rz
    limits (-45.0 90.0)
           (-70.0 20.0)
  end
  begin
     id 5 
     name ltoes
     direction 1.53586e-011 -4.22017e-011 1   
     length 1.16486   
     axis -90 7.62852e-016 20   XYZ
    dof rx
    limits (-90.0 20.0)
  end
  begin
     id 6 
     name rhipjoint
     direction -0.638185 -0.721362 0.268992   
     length 2.57244  
     axis 0 0 0  XYZ 
  end
  begin
     id 7 
     name rfemur
     direction -0.34202 -0.939693 0   
     length 7.07017   
     axis 0 0 -20   XYZ
    dof rx ry rz
    limits (-160.0 20.0)
           (-70.0 70.0)
           (-70.0 60.0)
  end
  begin
     id 8 
     name rtibia
     direction -0.34202 -0.939693 0   
     length 8.20386   
     axis 0 0 -20   XYZ
    dof rx
    limits (-10.0 170.0)
 end
 begin
     id 9 
     name rfoot
     direction -0.0822429 -0.225961 0.970658   
     length 2.32215  
     axis -90 -7.62852e-016 -20   XYZ
    dof rx rz
    limits (-45.0 90.0)
           (-20.0 70.0)
  end
  begin
     id 10 
     name rtoes
     direction -1.53597e-011 -4.21689e-011 1   
     length 1.16333   
     axis -90 -7.62852e-016 -20   XYZ
    dof rx
    limits (-90.0 20.0)
  end
  begin
     id 11 
     name lowerback
     direction -0.0131557 0.998589 -0.0514484   
     length 2.14993   
     axis 0 0 0   XYZ
    dof rx ry rz
    limits (-20.0 45.0)
           (-30.0 30.0)
           (-30.0 30.0)
  end
  begin
     id 12 
     name upperback
     direction -0.000776481 0.999993 0.00352685   
     length 2.15301   
     axis 0 0 0   XYZ
    dof rx ry rz
    limits (-20.0 45.0)
           (-30.0 30.0)
           (-30.0 30.0)
  end
  begin
     id 13 
     name thorax
     direction 0.00438186 0.999609 0.0276143   
     length 2.15424   
     axis 0 0 0   XYZ
    dof rx ry rz
    limits (-20.0 45.0)
           (-30.0 30.0)
           (-30.0 30.0)
  end
  begin
     id 14 
     name lowerneck
     direction -0.0488006 0.998094 0.0377807   
     length 1.90481   
     axis 0 0 0   XYZ
    dof rx ry rz
    limits (-20.0 45.0)
           (-30.0 30.0)
           (-30.0 30.0)
  end
  begin
     id 15 
     name upperneck
     direction 0.0443769 0.990702 -0.12861   
     length 1.91305   
     axis 0 0 0   XYZ
    dof rx ry rz
    limits (-20.0 45.0)
           (-30.0 30.0)
           (-30.0 30.0)
  end
  begin
     id 16
     name head
     direction 0.0165599 0.998647 -0.0492982  
     length 1.92369  
     axis 0 0 0   XYZ
    dof rx ry rz
    limits (-20.0 45.0)
           (-30.0 30.0)
           (-30.0 30.0)
  end
  begin
     id 17 
     name lclavicle
     direction 0.911936 0.410197 -0.0105506  
     length 3.52622  
     axis 0 0 0   XYZ
    dof ry rz
    limits (-20.0 10.0)
           (0.0 20.0)
  end
  begin
     id 18 
     name lhumerus
     direction 1 -4.48974e-011 -2.48591e-028   
     length 5.47651   
     axis 180 -30 -90   XYZ
    dof rx ry rz
    limits (-60.0 90.0)
           (-90.0 90.0)
           (-90.0 90.0)
  end
  begin
     id 19
     name lradius
     direction 1 -4.48938e-011 -4.40099e-027   
     length 3.09058   
     axis 180 -30 -90   XYZ
    dof rx
    limits (-10.0 170.0)
  end
  begin
     id 20
     name lwrist
     direction 1 -4.49042e-011 -2.99852e-027   
     length 1.54529   
     axis 1.95339e-015 90 90   XYZ
    dof ry
    limits (-180.0 0.0)
 end
  begin
     id 21 
     name lhand
     direction 1 -4.48815e-011 -5.98193e-027   
     length 0.771611   
     axis 3.82337e-015 90 90   XYZ
    dof rx rz
    limits (-90.0 90.0)
           (-45.0 45.0)
  end
  begin
     id 22 
     name lfingers
     direction 1 -4.49034e-011 -1.1993e-026   
     length 0.622093   
     axis 7.64668e-015 90 90   XYZ
    dof rx
    limits (0.0 90.0)
  end
  begin
     id 23
     name lthumb
     direction 0.707107 -6.34867e-011 0.707107   
     length 0.893204   
     axis -90 45 -1.62303e-014   XYZ
    dof rx rz
    limits (-45.0 45.0)
           (-45.0 45.0)
  end
  begin
     id 24 
     name rclavicle
     direction -0.93442 0.355634 -0.0195692   
     length 3.62463  
     axis 0 0 0   XYZ 
    dof ry rz
    limits (-10.0 20.0)
           (-20.0 0.0)
  end
  begin
     id 25 
     name rhumerus
     direction -1 -4.48957e-011 -1.19147e-027  
     length 5.14182   
     axis 180 30 90   XYZ
    dof rx ry rz
    limits (-90.0 60.0)
           (-90.0 90.0)
           (-90.0 90.0)
  end
  begin
     id 26 
     name rradius
     direction -1 -4.48952e-011 -3.81062e-027   
     length 3.35565   
     axis 180 30 90   XYZ
    dof rx
    limits (-10.0 170.0)
  end
  begin
     id 27 
     name rwrist
     direction -1 -4.48973e-011 -2.99621e-027   
     length 1.67782   
     axis 1.95339e-015 -90 -90   XYZ
    dof ry
    limits (-180.0 0.0)
  end
  begin
     id 28
     name rhand
     direction -1 -4.48895e-011 -5.98727e-027   
     length 0.801042   
     axis 3.82337e-015 -90 -90   XYZ
    dof rx rz
    limits (-90.0 90.0)
           (-45.0 45.0)
  end
  begin
     id 29
     name rfingers
     direction -1 -4.49065e-011 -1.19972e-026   
     length 0.645821   
     axis 7.64668e-015 -90 -90   XYZ
    dof rx
    limits (0.0 90.0)
  end
  begin
     id 30
     name rthumb
     direction -0.707107 -6.34957e-011 0.707107   
     length 0.927273   
     axis -90 -45 1.62303e-014   XYZ
    dof rx rz
    limits (-45.0 45.0)
           (-45.0 45.0)
  end
:hierarchy
  begin
    root lhipjoint rhipjoint lowerback
    lhipjoint lfemur
    lfemur ltibia
    ltibia lfoot
    lfoot ltoes
    rhipjoint rfemur
    rfemur rtibia
    rtibia rfoot
    rfoot rtoes
    lowerback upperback
    upperback thorax
    thorax lowerneck lclavicle rclavicle
    lowerneck upperneck
    upperneck head
    lclavicle lhumerus
    lhumerus lradius
    lradius lwrist
    lwrist lhand lthumb
    lhand lfingers
    rclavicle rhumerus
    rhumerus rradius
    rradius rwrist
    rwrist rhand rthumb
    rhand rfingers
  end

#!OML:ASF E:\Style4\Style4.ASF
:FULLY-SPECIFIED
:DEGREES
423
root 0.0696667 16.6365 -2.35235 3.88198 -0.154928 2.62601
lowerback 18.6318 2.15511 -0.927093
upperback 9.47666 2.66269 0.310248
thorax -0.309552 1.29152 0.361356
lowerneck 5.70525 -5.18946 -5.25279
upperneck -9.67756 -6.98716 5.39091
head -3.80643 -3.53231 3.08938
rclavicle 9.54166e-015 -2.78299e-015
rhumerus 19.0443 1.71094 -71.1468
rradius 113.929
rwrist 18.3147
rhand 22.1336 -4.36626
rfingers 7.12502
rthumb 46.5173 -27.2423
lclavicle 9.54166e-015 -2.78299e-015
lhumerus 24.6232 -15.7413 65.0681
lradius 118.168
lwrist -9.71326
lhand 13.1626 40.253
lfingers 7.12502
lthumb 38.1194 66.0196
rfemur -37.2679 -1.58247 16.2659
rtibia 57.3217
rfoot -22.5506 -10.6156
rtoes -11.9103
lfemur -36.5385 1.10049 -21.5152
ltibia 55.3742
lfoot -21.7974 6.01733
ltoes -17.1664
424
root 0.0708734 16.6359 -2.35233 3.8207 -0.167154 2.65175
lowerback 18.6294 2.15664 -0.936562
upperback 9.47754 2.66287 0.294169
thorax -0.306972 1.29171 0.349841
lowerneck 5.75481 -5.19739 -5.24013
upperneck -9.73523 -6.99804 5.39109
head -3.83632 -3.5381 3.09243
rclavicle -9.93923e-015 4.37326e-015
rhumerus 19.1256 1.71212 -71.2185
rradius 113.104
rwrist 18.4328
rhand 22.2755 -4.29133
rfingers 7.12502
rthumb 46.6486 -27.1108
lclavicle -9.93923e-015 4.37326e-015
lhumerus 24.5995 -15.7626 65.082
lradius 117.659
lwrist -9.96486
lhand 13.2452 40.1731
lfingers 7.12502
lthumb 38.1974 65.9183
rfemur -37.2103 -1.60072 16.2403
rtibia 57.3381
rfoot -22.4991 -10.7048
rtoes -12.3414
lfemur -36.4732 1.1072 -21.5606
ltibia 55.3956
lfoot -21.79 6.15772
ltoes -17.9649
425
root 0.0716156 16.6348 -2.35328 3.75661 -0.172809 2.62273
lowerback 18.6553 2.15632 -0.885209
upperback 9.48985 2.67026 0.295016
thorax -0.304885 1.29707 0.319844
lowerneck 5.70568 -5.19692 -5.27198
upperneck -9.72468 -6.99417 5.43511
head -3.8207 -3.53683 3.11028
rclavicle 6.75868e-015 6.36111e-015
rhumerus 19.1818 1.71259 -71.2715
rradius 112.434
rwrist 18.6312
rhand 22.4975 -4.23679
rfingers 7.12502
rthumb 46.8542 -26.967
lclavicle 6.75868e-015 6.36111e-015
lhumerus 24.638 -15.7903 65.0972
lradius 117.234
lwrist -10.3072
lhand 13.5142 40.0996
lfingers 7.12502
lthumb 38.4513 65.7746
rfemur -37.1448 -1.59096 16.2642
rtibia 57.3495
rfoot -22.4972 -10.6893
rtoes -12.2861
lfemur -36.4023 1.11035 -21.5252
ltibia 55.3906
lfoot -21.8025 6.06134
ltoes -17.469
426
root 0.0716353 16.6342 -2.35481 3.73236 -0.168291 2.64873
lowerback 18.6289 2.15238 -0.920279
upperback 9.52257 2.66019 0.297984
thorax -0.257765 1.29067 0.3463
lowerneck 5.63352 -5.17482 -5.31434
upperneck -9.74863 -6.96194 5.46572
head -3.81472 -3.52006 3.12482
rclavicle -5.40694e-014 1.43125e-014
rhumerus 19.2915 1.72349 -71.3076
rradius 111.882
rwrist 18.8922
rhand 22.7114 -4.08542
rfingers 7.12502
rthumb 47.052 -26.7287
lclavicle -5.40694e-014 1.43125e-014
lhumerus 24.6685 -15.7728 65.121
lradius 116.901
lwrist -10.7456
lhand 13.6217 40.0034
lfingers 7.12502
lthumb 38.5528 65.6501
rfemur -37.13 -1.58155 16.2197
rtibia 57.354
rfoot -22.5227 -10.598
rtoes -11.9103
lfemur -36.3737 1.08993 -21.545
ltibia 55.3652
lfoot -21.7535 5.9394
ltoes -17.0448
427
root 0.0710652 16.6347 -2.356 3.70986 -0.140119 2.72716
lowerback 18.6028 2.14304 -1.01353
upperback 9.55703 2.63372 0.281016
thorax -0.210054 1.27465 0.387561
lowerneck 5.54688 -5.17151 -5.2218
upperneck -9.79409 -6.95124 5.3932
head -3.8196 -3.51386 3.08044
rclavicle 1.07344e-014 -4.77083e-015
rhumerus 19.3574 1.74252 -71.3167
rradius 111.495
rwrist 19.2104
rhand 22.8554 -3.97937
rfingers 7.12502
rthumb 47.1853 -26.5635
lclavicle 1.07344e-014 -4.77083e-015
lhumerus 24.6669 -15.7372 65.1326
lradius 116.708
lwrist -11.1926
lhand 13.7572 39.976
lfingers 7.12502
lthumb 38.6806 65.5867
rfemur -37.1121 -1.58796 16.1246
rtibia 57.3637
rfoot -22.5542 -10.577
rtoes -11.8124
lfemur -36.3232 1.05846 -21.6232
ltibia 55.3287
lfoot -21.7743 5.8305
ltoes -16.6694
428
root 0.0711709 16.6346 -2.35689 3.68493 -0.115379 2.72936
lowerback 18.5869 2.13847 -0.997259
upperback 9.59099 2.63077 0.275244
thorax -0.164427 1.27379 0.374244
lowerneck 5.47852 -5.21154 -5.13971
upperneck -9.86649 -7.00039 5.32497
head -3.83342 -3.53724 3.04351
rclavicle 2.46493e-014 1.43125e-014
rhumerus 19.347 1.74009 -71.3245
rradius 111.304
rwrist 19.6122
rhand 23.0052 -4.01774
rfingers 7.12502
rthumb 47.3237 -26.54
lclavicle 2.46493e-014 1.43125e-014
lhumerus 24.687 -15.794 65.0991
lradius 116.683
lwrist -11.5766
lhand 13.7181 40.0405
lfingers 7.12502
lthumb 38.6436 65.6616
rfemur -37.0771 -1.61452 16.1269
rtibia 57.3579
rfoot -22.5487 -10.6201
rtoes -12.0445
lfemur -36.2871 1.00531 -21.6086
ltibia 55.3073
lfoot -21.8326 5.84672
ltoes -16.8381
429
root 0.0717285 16.6337 -2.35776 3.66778 -0.128543 2.67585
lowerback 18.5629 2.14118 -0.9243
upperback 9.61868 2.64611 0.276633
thorax -0.119633 1.28376 0.333356
lowerneck 5.45756 -5.23767 -5.09691
upperneck -9.94825 -7.03187 5.30409
head -3.85832 -3.55286 3.0321
rclavicle 6.75868e-015 -1.39149e-014
rhumerus 19.2951 1.74806 -71.3188
rradius 111.339
rwrist 19.9206
rhand 23.1058 -4.09849
rfingers 7.12502
rthumb 47.4166 -26.579
lclavicle 6.75868e-015 -1.39149e-014
lhumerus 24.6651 -15.854 65.0633
lradius 116.83
lwrist -11.8441
lhand 13.6451 40.0119
lfingers 7.12502
lthumb 38.5748 65.6524
rfemur -37.045 -1.59383 16.1937
rtibia 57.3385
rfoot -22.5316 -10.6577
rtoes -12.1607
lfemur -36.2686 1.02301 -21.5499
ltibia 55.2907
lfoot -21.8405 5.95846
ltoes -17.4423
430
root 0.0721511 16.6345 -2.35954 3.68263 -0.129565 2.62184
lowerback 18.5253 2.13881 -0.867418
upperback 9.63322 2.65272 0.288011
thorax -0.0830563 1.28864 0.313801
lowerneck 5.48595 -5.23737 -5.09417
upperneck -10.0327 -7.02987 5.32
head -3.89359 -3.55236 3.04199
rclavicle -3.18055e-015 1.51076e-014
rhumerus 19.2 1.76714 -71.2998
rradius 111.488
rwrist 20.2908
rhand 23.1417 -4.11508
rfingers 7.12502
rthumb 47.4498 -26.5806
lclavicle -3.18055e-015 1.51076e-014
lhumerus 24.637 -15.8708 65.0394
lradius 117.131
lwrist -11.8599
lhand 13.6851 40.0919
lfingers 7.12502
lthumb 38.6125 65.7218
rfemur -37.0447 -1.58944 16.2591
rtibia 57.2943
rfoot -22.5132 -10.6773
rtoes -12.147
lfemur -36.2841 1.02317 -21.4942
ltibia 55.2739
lfoot -21.7558 5.942
ltoes -17.1396
431
root 0.0720363 16.6376 -2.36174 3.68886 -0.141178 2.62372
lowerback 18.5511 2.14392 -0.868409
upperback 9.63084 2.65867 0.284781
thorax -0.0987119 1.29164 0.308905
lowerneck 5.48471 -5.23892 -5.135
upperneck -10.0802 -7.03176 5.35535
head -3.90765 -3.55313 3.0635
rclavicle -1.66979e-014 4.77083e-015
rhumerus 19.0466 1.80319 -71.2864
rradius 111.776
rwrist 20.5136
rhand 23.0889 -4.09105
rfingers 7.12502
rthumb 47.401 -26.5786
lclavicle -1.66979e-014 4.77083e-015
lhumerus 24.6173 -15.8536 65.0206
lradius 117.574
lwrist -11.5777
lhand 13.7414 40.364
lfingers 7.12502
lthumb 38.6657 65.979
rfemur -37.0431 -1.5721 16.2492
rtibia 57.2389
rfoot -22.4898 -10.634
rtoes -11.8589
lfemur -36.277 1.01465 -21.4944
ltibia 55.2367
lfoot -21.7114 5.9049
ltoes -16.8937
432
root 0.0718862 16.6428 -2.36341 3.6914 -0.140079 2.62111
lowerback 18.588 2.15018 -0.84908
upperback 9.64272 2.66937 0.286684
thorax -0.104121 1.29758 0.297057
lowerneck 5.50816 -5.24813 -5.18163
upperneck -10.1901 -7.04463 5.3938
head -3.94781 -3.55903 3.09143
rclavicle 1.66979e-014 -3.18055e-015
rhumerus 18.9371 1.78711 -71.2816
rradius 112.224
rwrist 20.3653
rhand 22.9811 -3.98823
rfingers 7.12502
rthumb 47.3014 -26.5205
lclavicle 1.66979e-014 -3.18055e-015
lhumerus 24.5688 -15.8691 65.0579
lradius 118.001
lwrist -11.2414
lhand 13.5732 40.5649
lfingers 7.12502
lthumb 38.507 66.2244
rfemur -37.0107 -1.55843 16.2439
rtibia 57.1692
rfoot -22.4798 -10.5819
rtoes -11.6367
lfemur -36.2471 0.995628 -21.4852
ltibia 55.183
lfoot -21.6752 5.91259
ltoes -16.8584
433
root 0.0709873 16.6468 -2.36443 3.71929 -0.13035 2.59206
lowerback 18.5871 2.16118 -0.810937
upperback 9.64048 2.6899 0.297477
thorax -0.105232 1.3089 0.283178
lowerneck 5.56646 -5.26295 -5.24703
upperneck -10.6315 -7.02544 5.71251
head -3.68069 -3.58287 2.90665
rclavicle -9.14409e-015 8.74653e-015
rhumerus 18.8021 1.78611 -71.2513
rradius 112.71
rwrist 20.2904
rhand 22.7153 -4.01927
rfingers 7.12502
rthumb 47.0557 -26.6609
lclavicle -9.14409e-015 8.74653e-015
lhumerus 24.4641 -15.8712 65.1593
lradius 118.448
lwrist -10.868
lhand 13.5552 40.5806
lfingers 7.12502
lthumb 38.49 66.2448
rfemur -36.9986 -1.55048 16.2761
rtibia 57.0971
rfoot -22.4622 -10.4683
rtoes -11.1894
lfemur -36.259 0.996831 -21.4505
ltibia 55.1319
lfoot -21.5693 5.98246
ltoes -17.4102
434
root 0.0712613 16.651 -2.365 3.77683 -0.128727 2.59222
lowerback 18.5404 2.16048 -0.806808
upperback 9.64881 2.6901 0.290535
thorax -0.0719559 1.30927 0.275401
lowerneck 5.64235 -5.26933 -5.25089
upperneck -10.7477 -7.03159 5.75456
head -3.72619 -3.58834 2.92592
rclavicle 2.74323e-014 -5.96354e-015
rhumerus 18.7115 1.86152 -71.2447
rradius 113.217
rwrist 20.1492
rhand 22.2262 -4.23058
rfingers 7.12502
rthumb 46.603 -27.0697
lclavicle 2.74323e-014 -5.96354e-015
lhumerus 24.3766 -15.8202 65.2177
lradius 118.95
lwrist -10.4771
lhand 13.5643 40.5406
lfingers 7.12502
lthumb 38.4986 66.2024
rfemur -37.0208 -1.56762 16.2781
rtibia 57.0126
rfoot -22.3917 -10.3905
rtoes -10.803
lfemur -36.3017 0.979702 -21.4559
ltibia 55.086
lfoot -21.5926 5.93756
ltoes -16.8851
435
root 0.0719541 16.6559 -2.36501 3.82408 -0.129512 2.53922
lowerback 18.5084 2.14755 -0.764165
upperback 9.65813 2.68063 0.307361
thorax -0.0445315 1.30551 0.272209
lowerneck 5.667 -5.26487 -5.206
upperneck -10.7999 -7.02877 5.68538
head -3.75068 -3.58506 2.90009
rclavicle -1.19271e-014 1.59028e-015
rhumerus 18.6091 1.94969 -71.2411
rradius 113.824
rwrist 19.7922
rhand 21.8561 -4.23943
rfingers 7.12502
rthumb 46.2601 -27.2249
lclavicle -1.19271e-014 1.59028e-015
lhumerus 24.3157 -15.7239 65.2664
lradius 119.378
lwrist -10.1422
lhand 13.4376 40.2934
lfingers 7.12502
lthumb 38.379 65.9885
rfemur -37.0197 -1.55751 16.3371
rtibia 56.9087
rfoot -22.3456 -10.4754
rtoes -11.1344
lfemur -36.3308 0.970586 -21.4023
ltibia 55.0456
lfoot -21.6382 5.85959
ltoes -16.3139
436
root 0.0717236 16.6596 -2.36675 3.90994 -0.134798 2.51604
lowerback 18.4828 2.14973 -0.762916
upperback 9.63524 2.684 0.316946
thorax -0.0565722 1.30698 0.281327
lowerneck 5.61663 -5.257 -5.18395
upperneck -10.7072 -7.01935 5.64615
head -3.71722 -3.57903 2.88019
rclavicle 3.02153e-014 -8.74653e-015
rhumerus 18.4772 1.99228 -71.2534
rradius 114.541
rwrist 19.3467
rhand 21.7152 -4.23505
rfingers 7.12502
rthumb 46.1295 -27.2755
lclavicle 3.02153e-014 -8.74653e-015
lhumerus 24.2416 -15.656 65.3129
lradius 119.835
lwrist -9.81588
lhand 13.3699 40.1462
lfingers 7.12502
lthumb 38.3151 65.859
rfemur -37.1068 -1.53617 16.3605
rtibia 56.7995
rfoot -22.2146 -10.6454
rtoes -11.7703
lfemur -36.4111 0.977884 -21.3676
ltibia 55.0012
lfoot -21.6458 5.81938
ltoes -16.2281
437
root 0.0716108 16.664 -2.36686 3.97513 -0.166787 2.54083
lowerback 18.4775 2.16115 -0.780152
upperback 9.59477 2.69526 0.285304
thorax -0.0967155 1.31285 0.254895
lowerneck 5.65219 -5.24667 -5.23186
upperneck -10.6102 -7.00412 5.73157
head -3.68945 -3.57476 2.91162
rclavicle 1.35174e-014 -7.15625e-015
rhumerus 18.3012 2.00896 -71.3405
rradius 115.313
rwrist 18.7994
rhand 21.7386 -4.45896
rfingers 7.12502
rthumb 46.1511 -27.4903
lclavicle 1.35174e-014 -7.15625e-015
lhumerus 24.1654 -15.6403 65.3333
lradius 120.282
lwrist -9.52835
lhand 13.3793 40.0754
lfingers 7.12502
lthumb 38.324 65.7858
rfemur -37.1729 -1.52597 16.3325
rtibia 56.7125
rfoot -22.1267 -10.6557
rtoes -11.8866
lfemur -36.4446 1.00413 -21.3943
ltibia 54.9402
lfoot -21.6146 5.80695
ltoes -16.0369
